<svg width="237" height="49" viewBox="0 0 237 49" fill="none" xmlns="http://www.w3.org/2000/svg">
<path d="M77.1707 7.90727C76.6449 8.54724 75.278 8.72502 69.9854 8.885C64.2897 9.045 62.2918 9.24054 59.8557 9.88053C56.7537 10.6627 54.8785 11.8182 54.1074 13.436C53.5642 14.5559 53.5817 15.8004 54.1425 16.5825C54.528 17.1336 55.5621 17.5957 56.3682 17.5957C56.9816 17.5957 58.4186 16.9914 58.4186 16.7425C58.4186 16.6536 58.2258 16.4047 57.9805 16.1737C57.7352 15.9426 57.4898 15.4981 57.4372 15.1603C57.1042 13.3293 59.1021 12.0493 63.1856 11.4805C64.1319 11.356 64.938 11.2849 64.9731 11.3205C65.0258 11.3738 64.938 11.7471 64.7978 12.1382C63.3082 16.3692 61.9938 27.8 62.4494 32.6176C62.6423 34.7508 62.9051 35.3909 63.869 36.0485C64.3948 36.4219 64.6225 36.4575 65.8318 36.4041C66.5679 36.3508 67.2164 36.2798 67.2689 36.2441C67.304 36.1908 67.1812 35.6397 66.9885 35.0175C65.6566 30.6621 65.8143 21.5602 67.374 13.0093L67.742 11.0183H70.6864C72.3161 11.0183 73.7707 10.9649 73.946 10.8938C74.2265 10.7871 74.244 10.9649 74.1388 13.5248C74.0862 15.0359 73.8585 17.7025 73.6482 19.4625C73.1399 23.7645 73.0522 32.5821 73.5254 33.6308C73.9285 34.5553 74.5595 34.9108 75.7861 34.9286C76.3294 34.9286 76.8377 34.8753 76.8902 34.822C76.9604 34.7686 76.8727 33.9686 76.715 33.0442C76.5222 32.031 76.3996 30.3777 76.3996 28.8844C76.3821 26.5023 76.3996 26.36 76.8552 25.4711C77.381 24.4934 79.2562 22.4846 79.4666 22.6979C79.5191 22.7867 79.6769 23.2312 79.7819 23.729C80.0974 25.0267 81.2365 27.3734 82.3756 29.1155C83.7427 31.1776 86.2313 33.702 87.6508 34.4664C89.1054 35.2308 89.7364 35.1419 90.8055 34.0219C91.7868 32.9732 91.7518 32.6887 90.6477 32.1731C87.493 30.7333 84.3035 27.48 82.5334 23.8713C81.9376 22.6623 81.4293 21.2046 81.5695 21.0979C81.6046 21.0623 83.0242 20.0491 84.7066 18.8402C88.0538 16.4758 89.0003 15.7114 89.8064 14.8581C90.5075 14.0937 91.0683 12.8849 90.9455 12.3693C90.7878 11.7471 90.1745 11.036 89.4209 10.6627L88.7549 10.3072L88.1415 11.2138C86.5292 13.6315 84.1458 16.0669 80.9387 18.5202C79.9747 19.249 78.5903 20.4224 77.8717 21.1156C77.1532 21.809 76.5399 22.3423 76.5047 22.3246C76.4697 22.289 76.5749 20.5824 76.7501 18.5381C76.9079 16.5115 77.048 13.8626 77.0655 12.6715L77.0832 10.5027L77.6615 10.3961C78.9583 10.1472 79.3088 9.045 78.38 8.15614C77.7665 7.56949 77.4862 7.51617 77.1707 7.90727Z" fill="black"/>
<path d="M42.2073 9.95199C40.4724 10.0942 40.1219 10.1653 38.4395 10.6986C35.8983 11.5164 33.5324 13.3474 32.6386 15.1963C32.2881 15.9428 32.218 16.3518 32.218 17.6851C32.218 19.0184 32.2881 19.4094 32.6386 20.0673C33.4272 21.5783 34.987 23.0181 37.0024 24.0848L37.9487 24.5826L36.7921 25.2048C35.1623 26.0759 34.1807 27.0181 33.5499 28.298C32.0428 31.3201 33.6374 34.2711 37.4932 35.6222C41.7868 37.151 46.9567 36.191 49.9361 33.329C50.6897 32.6178 50.8824 32.3156 50.8824 31.8712C50.8824 31.1068 50.4794 30.8045 49.9711 31.1779C48.5866 32.209 47.132 33.08 46.1156 33.489C42.3651 35 37.6157 34.0044 36.3364 31.4446C35.8983 30.5735 35.8808 29.1335 36.3189 28.1558C36.7044 27.2847 37.8787 26.2359 38.9126 25.8447C39.6486 25.5603 39.7714 25.5603 41.0332 25.8626C41.8393 26.0581 43.0661 26.2002 44.0827 26.2002C45.6423 26.218 45.8001 26.1825 46.2381 25.7736C46.8867 25.1515 46.7814 24.4048 45.9753 23.907C45.4496 23.6048 45.064 23.5515 43.4342 23.5515C42.3826 23.5515 41.1734 23.6225 40.7702 23.6937L40.0342 23.8537L38.6498 22.4493C37.0549 20.8317 36.3539 19.5694 36.2138 17.9872C35.9684 15.1785 37.7209 12.9563 40.9807 11.9786C41.7342 11.7475 42.6281 11.6586 44.1352 11.6586C47.5175 11.6586 49.4629 12.3697 51.2855 14.2541C52.3721 15.3917 52.8803 15.4985 53.0906 14.6452C53.739 12.0319 47.9207 9.52534 42.2073 9.95199Z" fill="black"/>
<path d="M159.417 10.1116C157.804 10.8583 156.526 12.8315 155.667 15.8714C155.193 17.4891 154.283 23.0356 154.283 24.2089C154.283 24.4934 154.159 24.76 153.967 24.8667C153.475 25.1333 150.987 25.5601 149.217 25.7022L147.605 25.8266L147.71 26.2889C148.06 27.6755 149.445 28.1911 152.056 27.9065C152.915 27.8 153.668 27.7644 153.721 27.8C153.88 27.9777 152.915 31.9065 152.371 33.3642L151.811 34.822L150.812 34.9286C150.269 34.9998 149.515 35.1241 149.164 35.2131C148.586 35.3553 148.499 35.4619 148.499 35.8885C148.499 36.8664 149.708 37.8618 150.917 37.8618C151.74 37.8618 152.968 37.3462 153.546 36.7774L154.106 36.2263L157.471 37.4174C163.71 39.6039 164.078 39.6929 166.549 39.7106C168.495 39.7284 168.827 39.6751 169.564 39.3196C171.019 38.5907 171.264 37.1152 170.142 35.7642L169.704 35.2308L168.688 35.5509C165.708 36.493 162.15 36.493 157.56 35.5509C155.123 35.0353 154.649 34.893 154.737 34.662C155.492 32.9019 156.034 30.7865 156.63 27.3377C156.736 26.7688 156.876 26.6088 157.735 26.1112C158.751 25.5245 160.381 24.2623 161.082 23.5334C161.87 22.7156 163.237 20.7424 163.728 19.7468C165.69 15.7648 165.446 11.5871 163.15 10.2183C162.203 9.6494 160.538 9.61386 159.417 10.1116ZM162.413 11.9071C162.975 12.6004 163.115 13.3826 162.956 14.9648C162.729 17.3824 161.888 19.3557 160.345 21.098C159.61 21.9157 157.611 23.4622 157.261 23.4622C156.964 23.4622 158.12 16.4937 158.786 14.3426C159.329 12.5649 160.345 11.3738 161.328 11.3738C161.818 11.3738 162.063 11.4982 162.413 11.9071Z" fill="black"/>
<path d="M104.072 10.5031C100.567 10.9475 97.991 15.054 98.2363 19.8184C98.394 22.8405 99.7084 24.7248 101.671 24.7426C102.512 24.7426 103.143 24.4225 103.581 23.7649C104.23 22.8049 104.177 22.4139 103.389 22.1293C102.477 21.8093 101.461 20.7606 101.005 19.6761C100.567 18.645 100.479 16.4584 100.83 15.3563C101.882 12.1208 105.334 11.1431 107.612 13.4363C109.032 14.894 109.873 17.5073 110.066 21.0804C110.364 27.1958 108.541 31.9601 105.194 33.7734C104.282 34.2533 103.827 34.3778 102.74 34.4489C100.777 34.5556 99.7959 34.1823 98.4641 32.8135C97.2197 31.5513 96.5012 30.1291 95.9054 27.8181C95.5373 26.3959 95.4848 25.8448 95.5023 22.7515C95.5198 19.7649 95.5723 19.0895 95.9054 17.8628C96.3084 16.3163 97.1672 14.3429 97.6404 13.8096C97.9208 13.4896 97.9208 13.4541 97.5177 13.1341C96.6064 12.3697 95.2395 12.9208 94.223 14.4674C92.3653 17.2584 91.6643 24.4226 92.8384 28.4935C93.4869 30.6979 94.1704 31.9779 95.4848 33.3824C97.395 35.4445 99.4981 36.3334 102.495 36.3334C103.879 36.3511 104.528 36.2622 105.544 35.9066C108.208 35.0356 110.364 33.0801 111.748 30.3068C112.607 28.5647 113.08 26.7514 113.308 24.156C113.483 22.2538 113.466 21.596 113.238 19.8894C112.765 16.5473 111.871 14.3963 110.223 12.6541C108.629 10.9475 106.456 10.2009 104.072 10.5031Z" fill="black"/>
<path d="M202.688 10.5745C198.745 11.3033 194.871 13.401 195.187 14.6276C195.362 15.3565 195.765 15.3387 196.746 14.5921C197.658 13.8988 199.042 13.1344 199.814 12.8855C200.182 12.7788 200.198 12.7966 200.058 13.0988C199.305 14.521 198.148 18.7341 197.412 22.6628C196.589 27.1249 196.449 28.6182 196.431 32.7959C196.431 36.6891 196.431 36.7069 196.905 37.738C197.324 38.6267 197.499 38.8223 198.201 39.1423C198.885 39.4446 199.235 39.4801 200.182 39.3911C200.795 39.3378 201.373 39.2313 201.444 39.1601C201.513 39.0713 201.426 38.5379 201.233 37.9691C201.041 37.3824 200.707 35.818 200.514 34.5025C200.217 32.4226 200.182 31.5159 200.251 28.0848C200.392 22.5206 201.023 18.5919 202.425 14.7521C203.02 13.1344 203.038 13.0455 202.775 12.5655C202.513 12.1033 202.513 12.0677 202.793 11.9433C202.95 11.8722 204.194 11.8189 205.544 11.8189C207.858 11.8189 208.05 11.8544 209.049 12.3166C211.011 13.241 211.836 14.4321 211.819 16.3519C211.819 17.9519 211.31 18.9652 209.68 20.6362C207.823 22.5028 207.016 22.9651 205.403 23.0006C203.827 23.0362 203.126 23.4095 203.213 24.1384C203.301 24.9384 203.966 25.1695 205.422 24.885C206.105 24.7607 207.209 24.6894 207.927 24.7427C210.608 24.9205 211.958 26.3072 211.923 28.8316C211.907 30.8403 211.03 32.3514 209.417 33.1514C207.734 33.9869 206.246 33.9514 203.196 32.9559C202.793 32.8314 202.775 32.8492 202.881 33.5248C203.038 34.4669 204.054 35.4269 205.299 35.818C206.386 36.138 208.681 36.1913 209.908 35.9069C211.661 35.5158 213.36 34.3424 214.132 32.9914C215.359 30.8226 215.007 27.8893 213.238 25.8094C212.538 24.9562 210.557 23.8895 209.383 23.7117L208.577 23.5873L210.136 22.8406C213.851 21.0451 215.85 18.6808 215.866 16.0854C215.866 13.3477 213.431 11.3033 209.33 10.5745C207.542 10.2545 204.422 10.2545 202.688 10.5745Z" fill="black"/>
<path d="M13.4315 10.6805C12.5728 10.9294 10.8378 12.6716 9.6811 14.4671C6.36882 19.5337 2.44317 29.9688 1.61948 35.8886C1.23391 38.6264 1.72462 39.373 4.21321 39.9063C4.86165 40.0484 5.4575 40.1729 5.51008 40.1729C5.56266 40.1729 5.58019 39.4263 5.52761 38.5196C5.35236 34.8932 6.99974 27.7467 9.62852 20.8314C10.5574 18.3959 12.1171 15.2493 12.8707 14.3426C13.782 13.2227 14.7459 12.9205 15.0439 13.6493C15.2542 14.1826 15.1315 18.9648 14.7634 23.8179C14.4129 28.6 14.4305 29.8266 14.9036 31.7287C15.7098 35.0708 18.0407 36.0487 19.6881 33.7553C20.2664 32.9376 21.2477 30.4489 22.9303 25.5068C24.3322 21.418 24.6827 20.4758 25.3137 19.1603C25.9095 17.9692 26.1373 17.7736 26.4703 18.2182C26.8209 18.7158 26.7507 20.8492 26.2426 26.1644C25.5941 32.9554 25.7343 35.4798 26.8909 36.7418C27.1012 36.9553 27.4517 37.1686 27.6797 37.2219C28.258 37.3819 29.6249 37.0264 30.2383 36.5997C30.7114 36.2442 30.729 36.2087 30.4836 35.8353C29.9929 35.142 29.5198 33.9508 29.327 32.9198C29.1341 31.8709 28.7661 25.0979 28.8888 24.8846C29.029 24.6534 29.0115 16.9737 28.8888 16.4404C28.6435 15.4804 27.96 14.3071 27.5219 14.0582C26.9259 13.7382 26.2426 13.9338 25.6466 14.5737C24.6302 15.676 23.7539 17.7026 20.3891 26.7512C19.4076 29.3822 18.5665 31.5866 18.5315 31.6221C18.3912 31.7821 18.2685 31.4799 18.0232 30.2354C17.8304 29.3289 17.7077 26.929 17.585 22.1647C17.4097 14.9826 17.2521 13.6138 16.4809 12.1027C15.8325 10.805 14.7109 10.2894 13.4315 10.6805Z" fill="black"/>
<path d="M174.524 10.7347C173.596 11.1435 173.525 11.3569 173.84 12.619C174.156 13.8635 174.139 14.2368 173.543 20.7965C172.841 28.3696 173.157 32.0851 174.699 34.7695C175.296 35.8182 176.558 36.8849 177.504 37.1515C178.589 37.4538 180.132 37.3115 181.166 36.7961C183.112 35.8182 185.459 33.0095 187.108 29.7384C187.615 28.7252 188.054 27.9075 188.106 27.9075C188.159 27.9075 188.229 28.5297 188.264 29.2763C188.317 30.8941 188.667 32.9029 189.052 33.8273C189.648 35.2849 191.366 35.5872 193.101 34.5383C193.434 34.3427 193.434 34.325 193.066 33.6495C192.05 31.8007 191.436 28.6185 191.314 24.3519C191.173 20.0677 191.541 17.0101 192.592 13.2768C192.926 12.1391 192.995 11.6413 192.856 11.4991C192.751 11.3924 192.207 11.268 191.646 11.2324C190.701 11.1613 190.56 11.1969 190.052 11.6591C189.421 12.2635 189.176 13.2235 188.72 16.9744C188.142 21.7742 187.546 23.9965 185.986 27.3564C182.375 35.0716 177.643 37.0627 176.539 31.3207C176.136 29.3118 176.399 23.8543 177.136 18.9299C178.029 12.9035 177.958 11.2324 176.786 10.6813C176.206 10.4147 175.172 10.4502 174.524 10.7347Z" fill="black"/>
<path d="M137.108 11.0537C132.709 11.676 128.836 14.5203 126.856 18.5735C124.91 22.5023 124.77 26.68 126.435 30.1466C128.749 34.9108 134.707 37.4885 140.192 36.0842C142.891 35.3908 146.116 33.4175 146.835 31.9775C147.203 31.2843 147.167 30.4665 146.747 30.0399C146.274 29.5598 146.204 29.5776 145.713 30.3064C145.012 31.3554 143.207 32.9376 141.998 33.5597C140.298 34.4309 138.3 34.7864 136.512 34.5197C134.795 34.2708 133.568 33.6842 132.306 32.5108C129.309 29.7376 128.486 25.2222 130.08 20.4757C130.764 18.5025 131.517 17.2403 132.99 15.747C135.04 13.6314 137.406 12.6182 140.227 12.6182C142.085 12.6182 142.891 12.867 143.803 13.6848C144.469 14.2892 144.539 14.4136 144.609 15.4092C144.679 16.3159 144.609 16.6714 144.188 17.5958C143.82 18.4135 143.75 18.7691 143.89 19.0002C144.171 19.4624 144.837 19.729 145.713 19.729C146.747 19.729 147.238 19.2314 147.43 17.9692C148.167 13.2937 143.47 10.1293 137.108 11.0537Z" fill="black"/>
<path d="M118.425 28.1742C118.128 28.334 117.777 28.6541 117.654 28.8851C117.129 29.8807 118.128 31.6406 119.232 31.6406C120.914 31.6406 122.299 29.1519 121.054 28.334C120.423 27.9074 119.091 27.8364 118.425 28.1742Z" fill="black"/>
<path d="M232.02 8.36057L230.163 13.6631H229.473L227.615 8.37403V13.6631H226.421V6.43604H227.908L229.818 11.8059L231.729 6.43604H233.214V13.6631H232.02V8.36057ZM225.373 7.52616H223.423V13.6631H222.215V7.52616H220.251V6.43604H225.373V7.52616Z" fill="black"/>
</svg>
