<svg width="135" height="28" viewBox="0 0 135 28" fill="none" xmlns="http://www.w3.org/2000/svg">
<path d="M43.958 4.51844C43.6585 4.88414 42.8799 4.98572 39.8651 5.07714C36.6207 5.16857 35.4827 5.28031 34.095 5.64602C32.3281 6.09298 31.2599 6.75328 30.8207 7.67769C30.5113 8.31767 30.5212 9.02877 30.8407 9.47572C31.0603 9.79064 31.6493 10.0547 32.1085 10.0547C32.4579 10.0547 33.2764 9.70935 33.2764 9.56716C33.2764 9.51632 33.1666 9.37414 33.0269 9.2421C32.8872 9.11006 32.7474 8.85605 32.7174 8.66305C32.5277 7.61673 33.6658 6.88533 35.9918 6.56027C36.5309 6.48916 36.9901 6.44852 37.01 6.46884C37.04 6.49932 36.9901 6.71264 36.9102 6.93612C36.0617 9.35384 35.313 15.8857 35.5725 18.6386C35.6824 19.8576 35.8321 20.2234 36.3811 20.5992C36.6806 20.8125 36.8103 20.8329 37.4992 20.8023C37.9185 20.7719 38.2879 20.7313 38.3178 20.7109C38.3377 20.6804 38.2678 20.3655 38.158 20.01C37.3994 17.5212 37.4892 12.3201 38.3776 7.43389L38.5873 6.29615H40.2644C41.1928 6.29615 42.0213 6.26567 42.1212 6.22504C42.2809 6.16409 42.2909 6.26567 42.231 7.72848C42.2011 8.59194 42.0713 10.1157 41.9515 11.1214C41.662 13.5797 41.612 18.6183 41.8816 19.2176C42.1112 19.7459 42.4706 19.949 43.1694 19.9592C43.4788 19.9592 43.7683 19.9287 43.7983 19.8983C43.8383 19.8678 43.7883 19.4107 43.6984 18.8824C43.5886 18.3034 43.5188 17.3587 43.5188 16.5054C43.5088 15.1441 43.5188 15.0629 43.7783 14.5549C44.0778 13.9962 45.1459 12.8483 45.2658 12.9702C45.2957 13.021 45.3856 13.275 45.4454 13.5594C45.6252 14.301 46.274 15.6419 46.9229 16.6374C47.7016 17.8158 49.1192 19.2583 49.9277 19.6951C50.7563 20.1319 51.1157 20.0811 51.7247 19.4411C52.2837 18.8418 52.2637 18.6792 51.6348 18.3846C49.8378 17.5619 48.021 15.7028 47.0127 13.6407C46.6733 12.9499 46.3838 12.1169 46.4637 12.0559C46.4836 12.0356 47.2923 11.4566 48.2506 10.7658C50.1573 9.41474 50.6964 8.97794 51.1556 8.49036C51.5549 8.05355 51.8744 7.36278 51.8045 7.06819C51.7146 6.71264 51.3652 6.30631 50.936 6.09298L50.5566 5.88982L50.2072 6.40789C49.2888 7.78943 47.9312 9.18111 46.1044 10.5829C45.5552 10.9994 44.7667 11.67 44.3574 12.0661C43.9481 12.4623 43.5987 12.767 43.5787 12.7569C43.5587 12.7366 43.6186 11.7614 43.7185 10.5932C43.8083 9.43512 43.8881 7.92149 43.8981 7.24088L43.9082 6.00155L44.2376 5.9406C44.9763 5.79839 45.176 5.16857 44.6469 4.66065C44.2974 4.32542 44.1377 4.29495 43.958 4.51844Z" fill="black"/>
<path d="M24.0422 5.68692C23.0539 5.76819 22.8543 5.80883 21.8959 6.11358C20.4484 6.58086 19.1007 7.62718 18.5916 8.68365C18.3919 9.11026 18.3521 9.34397 18.3521 10.1058C18.3521 10.8677 18.3919 11.0912 18.5916 11.4671C19.0408 12.3305 19.9293 13.1533 21.0773 13.7628L21.6164 14.0473L20.9575 14.4028C20.0291 14.9006 19.4701 15.439 19.1107 16.1704C18.2522 17.8973 19.1606 19.5836 21.3569 20.3556C23.8026 21.2292 26.7475 20.6807 28.4446 19.0452C28.8739 18.6388 28.9837 18.4661 28.9837 18.2122C28.9837 17.7754 28.7541 17.6027 28.4646 17.816C27.6759 18.4052 26.8473 18.9029 26.2684 19.1366C24.132 20.0001 21.4267 19.4312 20.698 17.9684C20.4484 17.4706 20.4384 16.6478 20.688 16.0891C20.9076 15.5913 21.5765 14.992 22.1654 14.7684C22.5847 14.606 22.6546 14.606 23.3734 14.7787C23.8325 14.8904 24.5313 14.9716 25.1104 14.9716C25.9988 14.9818 26.0887 14.9615 26.3382 14.7278C26.7076 14.3723 26.6477 13.9457 26.1885 13.6612C25.889 13.4885 25.6694 13.458 24.741 13.458C24.142 13.458 23.4532 13.4987 23.2236 13.5393L22.8043 13.6308L22.0157 12.8282C21.1073 11.9039 20.7079 11.1826 20.6281 10.2785C20.4883 8.67349 21.4866 7.40369 23.3434 6.84498C23.7727 6.71292 24.2818 6.66213 25.1403 6.66213C27.0669 6.66213 28.1751 7.06847 29.2133 8.14525C29.8322 8.79535 30.1217 8.85634 30.2415 8.36873C30.6108 6.87546 27.2966 5.44312 24.0422 5.68692Z" fill="black"/>
<path d="M90.8069 5.7782C89.8885 6.20486 89.1602 7.33244 88.6709 9.0695C88.4009 9.99394 87.8824 13.1634 87.8824 13.8338C87.8824 13.9964 87.8119 14.1487 87.7027 14.2097C87.4224 14.362 86.0053 14.6059 84.997 14.6871L84.0786 14.7582L84.1385 15.0224C84.3381 15.8147 85.1268 16.1093 86.6141 15.9467C87.1034 15.8858 87.5325 15.8655 87.5626 15.8858C87.6529 15.9874 87.1034 18.2324 86.7938 19.0654L86.4748 19.8984L85.9054 19.9593C85.5959 20 85.1667 20.0711 84.967 20.1219C84.6376 20.2032 84.5877 20.2641 84.5877 20.5079C84.5877 21.0666 85.2765 21.6355 85.9654 21.6355C86.4344 21.6355 87.1335 21.3409 87.4628 21.0158L87.7818 20.7009L89.6985 21.3815C93.2523 22.631 93.4622 22.6818 94.8698 22.6919C95.9781 22.7021 96.1673 22.6716 96.5869 22.4685C97.4159 22.052 97.5552 21.2088 96.9163 20.4368L96.6669 20.132L96.0882 20.3149C94.3908 20.8533 92.3641 20.8533 89.7492 20.3149C88.3614 20.0203 88.0914 19.939 88.1413 19.807C88.5712 18.8013 88.8799 17.5924 89.2195 15.6217C89.2797 15.2966 89.3597 15.2052 89.849 14.9208C90.4277 14.5856 91.3563 13.8643 91.7553 13.4478C92.2042 12.9805 92.9832 11.853 93.2627 11.284C94.3805 9.0086 94.2412 6.62135 92.9333 5.83916C92.3942 5.51408 91.4458 5.49378 90.8069 5.7782ZM92.5137 6.8042C92.8336 7.20038 92.9136 7.64735 92.8233 8.55145C92.6934 9.93295 92.2145 11.0606 91.3357 12.0561C90.9169 12.5234 89.7785 13.4071 89.579 13.4071C89.4096 13.4071 90.0682 9.4251 90.4474 8.1959C90.757 7.18007 91.3357 6.49945 91.8955 6.49945C92.1749 6.49945 92.3142 6.57056 92.5137 6.8042Z" fill="black"/>
<path d="M59.2816 6.00183C57.2851 6.25579 55.8176 8.60237 55.9573 11.3249C56.0472 13.0518 56.7959 14.1285 57.914 14.1387C58.3931 14.1387 58.7525 13.9558 59.0021 13.58C59.3715 13.0315 59.3415 12.808 58.8923 12.6454C58.3732 12.4625 57.7942 11.8633 57.5346 11.2436C57.2851 10.6544 57.2351 9.40485 57.4348 8.77511C58.0338 6.92624 60.0004 6.36753 61.2981 7.67796C62.1067 8.51095 62.5859 10.0042 62.6957 12.046C62.8654 15.5405 61.8272 18.263 59.9205 19.2992C59.4014 19.5734 59.1418 19.6445 58.5229 19.6851C57.4049 19.7461 56.8458 19.5328 56.0871 18.7506C55.3783 18.0294 54.969 17.2167 54.6296 15.8961C54.42 15.0834 54.3901 14.7685 54.4 13.0009C54.41 11.2943 54.4399 10.9084 54.6296 10.2074C54.8592 9.32365 55.3484 8.19604 55.618 7.89128C55.7776 7.70844 55.7776 7.68812 55.5481 7.50527C55.0289 7.06846 54.2503 7.38336 53.6713 8.26715C52.6131 9.86204 52.2138 13.9558 52.8826 16.2821C53.252 17.5417 53.6414 18.2732 54.3901 19.0757C55.4781 20.2541 56.6761 20.762 58.3831 20.762C59.1718 20.7722 59.5411 20.7213 60.1202 20.5181C61.6375 20.0204 62.8654 18.903 63.6541 17.3183C64.1432 16.3228 64.4127 15.2866 64.5425 13.8035C64.6423 12.7166 64.6323 12.3407 64.5026 11.3655C64.233 9.45569 63.7239 8.22651 62.7855 7.23099C61.8771 6.25579 60.6393 5.82914 59.2816 6.00183Z" fill="black"/>
<path d="M115.455 6.04241C113.209 6.4589 111.003 7.65759 111.182 8.35852C111.282 8.77499 111.512 8.76484 112.071 8.3382C112.59 7.94203 113.379 7.50522 113.818 7.363C114.028 7.30205 114.037 7.31221 113.957 7.4849C113.528 8.29757 112.869 10.7051 112.45 12.9501C111.981 15.4998 111.901 16.3531 111.891 18.7404C111.891 20.9651 111.891 20.9752 112.161 21.5644C112.4 22.0723 112.5 22.184 112.9 22.3669C113.289 22.5396 113.489 22.5599 114.028 22.5091C114.377 22.4786 114.706 22.4177 114.747 22.377C114.786 22.3263 114.736 22.0215 114.626 21.6965C114.517 21.3613 114.327 20.4673 114.217 19.7156C114.047 18.527 114.028 18.009 114.067 16.0483C114.147 12.8688 114.507 10.6238 115.305 8.42963C115.644 7.50522 115.655 7.45442 115.505 7.18015C115.355 6.91603 115.355 6.89571 115.515 6.82461C115.605 6.78397 116.313 6.7535 117.082 6.7535C118.4 6.7535 118.509 6.77381 119.079 7.03793C120.196 7.56617 120.666 8.24678 120.656 9.34383C120.656 10.2581 120.367 10.8371 119.438 11.792C118.38 12.8586 117.92 13.1228 117.002 13.1431C116.104 13.1634 115.704 13.3767 115.754 13.7932C115.804 14.2504 116.183 14.3824 117.012 14.2199C117.402 14.1488 118.03 14.1081 118.44 14.1386C119.967 14.2402 120.736 15.0326 120.716 16.4751C120.706 17.6229 120.207 18.4864 119.288 18.9435C118.33 19.4209 117.482 19.4006 115.745 18.8318C115.515 18.7607 115.505 18.7708 115.565 19.1569C115.655 19.6953 116.233 20.2438 116.943 20.4673C117.562 20.6501 118.869 20.6806 119.568 20.5181C120.566 20.2946 121.534 19.6241 121.974 18.8521C122.673 17.6128 122.473 15.9366 121.465 14.7481C121.066 14.2605 119.938 13.651 119.269 13.5494L118.809 13.4783L119.698 13.0516C121.814 12.0256 122.952 10.6746 122.962 9.19149C122.962 7.62711 121.575 6.4589 119.239 6.04241C118.22 5.85956 116.443 5.85956 115.455 6.04241Z" fill="black"/>
<path d="M7.65089 6.10331C7.16174 6.24552 6.17345 7.24104 5.51458 8.26704C3.62784 11.1622 1.39171 17.1252 0.922518 20.5079C0.702891 22.0723 0.982408 22.499 2.39996 22.8038C2.76933 22.885 3.10874 22.9561 3.13868 22.9561C3.16863 22.9561 3.17862 22.5294 3.14867 22.0114C3.04885 19.9391 3.98722 15.8554 5.48463 11.9038C6.01372 10.5121 6.90219 8.71401 7.33145 8.19593C7.85055 7.55596 8.3996 7.38326 8.56931 7.79976C8.68914 8.10451 8.61923 10.8372 8.40958 13.6104C8.20993 16.343 8.21991 17.0439 8.48945 18.1308C8.94865 20.0406 10.2764 20.5994 11.2148 19.2889C11.5442 18.8216 12.1032 17.3995 13.0616 14.5754C13.8602 12.239 14.0598 11.7006 14.4192 10.9489C14.7586 10.2682 14.8884 10.1565 15.0781 10.4105C15.2777 10.6949 15.2378 11.9139 14.9483 14.9512C14.5789 18.8318 14.6588 20.2743 15.3176 20.9955C15.4374 21.1175 15.6371 21.2393 15.7669 21.2698C16.0963 21.3612 16.875 21.1581 17.2244 20.9143C17.4939 20.7111 17.5039 20.6908 17.3641 20.4775C17.0846 20.0813 16.8151 19.4006 16.7053 18.8115C16.5954 18.2121 16.3858 14.3418 16.4557 14.2199C16.5356 14.0878 16.5256 9.69941 16.4557 9.39464C16.3159 8.84611 15.9266 8.17561 15.6771 8.0334C15.3376 7.85055 14.9483 7.96229 14.6088 8.32799C14.0299 8.95784 13.5307 10.1159 11.6141 15.2865C11.055 16.79 10.5759 18.0496 10.5559 18.0699C10.476 18.1614 10.4061 17.9886 10.2664 17.2775C10.1566 16.7595 10.0867 15.3881 10.0168 12.6657C9.91695 8.56164 9.82718 7.77944 9.38787 6.91598C9.01855 6.17442 8.37963 5.87982 7.65089 6.10331Z" fill="black"/>
<path d="M99.4125 6.13409C98.8837 6.36774 98.8433 6.48963 99.023 7.21088C99.2027 7.92197 99.1932 8.1353 98.8536 11.8837C98.4538 16.2112 98.6335 18.3343 99.5123 19.8683C99.8519 20.4676 100.571 21.0771 101.11 21.2294C101.728 21.4022 102.607 21.3209 103.196 21.0263C104.304 20.4676 105.641 18.8626 106.58 16.9934C106.869 16.4144 107.12 15.9471 107.149 15.9471C107.179 15.9471 107.219 16.3027 107.239 16.7293C107.269 17.6537 107.469 18.8017 107.688 19.3299C108.028 20.1628 109.006 20.3355 109.994 19.7362C110.184 19.6244 110.184 19.6143 109.974 19.2283C109.396 18.1718 109.046 16.3534 108.976 13.9154C108.896 11.4672 109.106 9.72004 109.704 7.58674C109.894 6.93661 109.934 6.65217 109.855 6.5709C109.795 6.50995 109.485 6.43885 109.165 6.41853C108.627 6.37789 108.547 6.39821 108.257 6.66233C107.898 7.00771 107.758 7.55627 107.499 9.69965C107.169 12.4424 106.83 13.7123 105.942 15.6322C103.885 20.0409 101.189 21.1787 100.56 17.8975C100.331 16.7496 100.48 13.631 100.9 10.8171C101.409 7.37342 101.369 6.41853 100.701 6.10362C100.37 5.95124 99.7814 5.97156 99.4125 6.13409Z" fill="black"/>
<path d="M78.0995 6.31643C75.5938 6.67198 73.3877 8.29731 72.2596 10.6135C71.1516 12.8584 71.0717 15.2457 72.02 17.2266C73.3378 19.949 76.7319 21.422 79.8565 20.6195C81.3939 20.2233 83.2306 19.0957 83.6399 18.2729C83.8496 17.8767 83.8296 17.4094 83.59 17.1656C83.3205 16.8913 83.2806 16.9015 83.001 17.318C82.6017 17.9173 81.5736 18.8215 80.8847 19.177C79.9164 19.6748 78.7784 19.878 77.7601 19.7255C76.7818 19.5833 76.083 19.2481 75.3642 18.5776C73.6572 16.9929 73.188 14.4127 74.0965 11.7004C74.4858 10.5729 74.9151 9.85159 75.7536 8.99829C76.9216 7.78939 78.2692 7.21037 79.8764 7.21037C80.9346 7.21037 81.3939 7.35259 81.913 7.81987C82.2922 8.16526 82.3322 8.23636 82.3721 8.80527C82.4121 9.32336 82.3721 9.52653 82.1326 10.0548C81.9229 10.522 81.883 10.7252 81.9628 10.8572C82.1226 11.1214 82.5019 11.2737 83.001 11.2737C83.5901 11.2737 83.8696 10.9894 83.9794 10.2681C84.3987 7.59639 81.7233 5.7882 78.0995 6.31643Z" fill="black"/>
<path d="M67.4575 16.0994C67.2878 16.1907 67.0881 16.3736 67.0182 16.5057C66.7187 17.0746 67.2878 18.0802 67.9167 18.0802C68.875 18.0802 69.6637 16.6581 68.9549 16.1907C68.5955 15.947 67.8368 15.9064 67.4575 16.0994Z" fill="black"/>
<path d="M132.163 4.77747L131.106 7.8075H130.713L129.654 4.78516V7.8075H128.974V3.67773H129.821L130.909 6.74622L131.997 3.67773H132.843V7.8075H132.163V4.77747ZM128.377 4.30066H127.266V7.8075H126.578V4.30066H125.46V3.67773H128.377V4.30066Z" fill="black"/>
</svg>
