<svg width="171" height="35" viewBox="0 0 171 35" fill="none" xmlns="http://www.w3.org/2000/svg">
<path d="M55.6801 5.64805C55.3007 6.10517 54.3145 6.23216 50.4958 6.34643C46.3862 6.46071 44.9447 6.60038 43.187 7.05752C40.9489 7.61621 39.5959 8.44157 39.0395 9.59714C38.6476 10.3971 38.6602 11.286 39.0648 11.8446C39.343 12.2383 40.0891 12.5684 40.6707 12.5684C41.1133 12.5684 42.1501 12.1367 42.1501 11.9589C42.1501 11.8954 42.011 11.7176 41.834 11.5526C41.657 11.3876 41.48 11.0701 41.442 10.8288C41.2018 9.52093 42.6433 8.60664 45.5896 8.20036C46.2724 8.11143 46.854 8.06064 46.8793 8.08607C46.9173 8.12414 46.854 8.39078 46.7528 8.67014C45.6781 11.6923 44.7297 19.8571 45.0584 23.2983C45.1976 24.822 45.3872 25.2792 46.0827 25.7489C46.4621 26.0156 46.6264 26.0411 47.4989 26.0029C48.03 25.9649 48.4979 25.9141 48.5358 25.8886C48.5611 25.8506 48.4725 25.4569 48.3335 25.0125C47.3725 21.9015 47.4863 15.4001 48.6116 9.29236L48.8771 7.87021H51.0016C52.1774 7.87021 53.227 7.83207 53.3534 7.78128C53.5558 7.70507 53.5684 7.83207 53.4925 9.66057C53.4546 10.7399 53.2903 12.6446 53.1386 13.9018C52.7718 16.9746 52.7085 23.2729 53.05 24.022C53.3408 24.6824 53.7961 24.9363 54.6811 24.949C55.0731 24.949 55.4398 24.9109 55.4777 24.8729C55.5284 24.8347 55.4651 24.2633 55.3513 23.603C55.2122 22.8793 55.1238 21.6984 55.1238 20.6317C55.1111 18.9302 55.1238 18.8286 55.4525 18.1936C55.8319 17.4953 57.1848 16.0604 57.3367 16.2128C57.3745 16.2762 57.4884 16.5937 57.5641 16.9493C57.7918 17.8762 58.6137 19.5524 59.4356 20.7968C60.4219 22.2697 62.2175 24.0729 63.2417 24.6189C64.2912 25.1649 64.7465 25.1014 65.5179 24.3014C66.2259 23.5523 66.2007 23.3491 65.404 22.9808C63.1278 21.9524 60.8266 19.6286 59.5494 17.0509C59.1195 16.1874 58.7528 15.1461 58.8539 15.0699C58.8793 15.0445 59.9035 14.3208 61.1174 13.4573C63.5325 11.7684 64.2154 11.2224 64.797 10.6129C65.3029 10.0669 65.7075 9.2035 65.6189 8.83521C65.5051 8.39078 65.0626 7.88286 64.5189 7.61621L64.0383 7.36229L63.5958 8.00986C62.4325 9.73679 60.7128 11.4764 58.3988 13.2287C57.7033 13.7493 56.7044 14.5874 56.1859 15.0826C55.6675 15.5779 55.225 15.9588 55.1996 15.9461C55.1743 15.9207 55.2502 14.7017 55.3766 13.2415C55.4905 11.7939 55.5916 9.90186 55.6042 9.05107L55.617 7.50193L56.0342 7.42578C56.9699 7.248 57.2228 6.46071 56.5526 5.82581C56.11 5.40678 55.9078 5.36869 55.6801 5.64805Z" fill="black"/>
<path d="M30.4533 7.10877C29.2016 7.21035 28.9487 7.26114 27.7348 7.64207C25.9013 8.22621 24.1942 9.53407 23.5493 10.8547C23.2964 11.3879 23.2458 11.6801 23.2458 12.6324C23.2458 13.5848 23.2964 13.8641 23.5493 14.334C24.1183 15.4133 25.2437 16.4417 26.6979 17.2036L27.3807 17.5592L26.5461 18.0036C25.3702 18.6258 24.662 19.2989 24.2068 20.2131C23.1194 22.3717 24.27 24.4796 27.052 25.4446C30.1499 26.5366 33.8801 25.8509 36.0298 23.8066C36.5735 23.2986 36.7126 23.0828 36.7126 22.7654C36.7126 22.2194 36.4218 22.0034 36.055 22.2701C35.0561 23.0066 34.0066 23.6288 33.2732 23.9209C30.5672 25.0002 27.1404 24.2891 26.2174 22.4606C25.9013 21.8384 25.8886 20.8099 26.2047 20.1115C26.4829 19.4893 27.3302 18.7401 28.0761 18.4607C28.6072 18.2576 28.6958 18.2576 29.6062 18.4735C30.1878 18.6131 31.073 18.7146 31.8065 18.7146C32.9317 18.7273 33.0456 18.702 33.3616 18.4099C33.8296 17.9656 33.7536 17.4322 33.172 17.0766C32.7927 16.8608 32.5145 16.8227 31.3386 16.8227C30.5798 16.8227 29.7073 16.8734 29.4164 16.9243L28.8854 17.0386L27.8865 16.0354C26.7358 14.88 26.23 13.9784 26.1289 12.8482C25.9518 10.842 27.2163 9.25471 29.5683 8.55635C30.112 8.39128 30.7569 8.32778 31.8443 8.32778C34.2847 8.32778 35.6884 8.83571 37.0034 10.1817C37.7874 10.9943 38.1541 11.0706 38.3058 10.4611C38.7737 8.59442 34.5756 6.80402 30.4533 7.10877Z" fill="black"/>
<path d="M115.022 7.2225C113.859 7.75586 112.937 9.16529 112.317 11.3366C111.975 12.4921 111.318 16.4539 111.318 17.292C111.318 17.4952 111.229 17.6856 111.09 17.7619C110.735 17.9523 108.94 18.2571 107.663 18.3586L106.5 18.4475L106.576 18.7777C106.828 19.7681 107.827 20.1364 109.711 19.9331C110.331 19.8571 110.874 19.8316 110.913 19.8571C111.027 19.984 110.331 22.7903 109.939 23.8315L109.535 24.8728L108.814 24.9489C108.422 24.9998 107.878 25.0886 107.625 25.1521C107.208 25.2537 107.145 25.3299 107.145 25.6346C107.145 26.3331 108.017 27.0441 108.89 27.0441C109.483 27.0441 110.369 26.6758 110.786 26.2695L111.19 25.8759L113.618 26.7266C118.12 28.2884 118.385 28.352 120.168 28.3646C121.572 28.3774 121.812 28.3393 122.344 28.0854C123.394 27.5647 123.57 26.5108 122.761 25.5458L122.445 25.1648L121.712 25.3934C119.562 26.0664 116.994 26.0664 113.683 25.3934C111.924 25.0251 111.582 24.9235 111.646 24.7585C112.191 23.5013 112.582 21.9903 113.012 19.5269C113.088 19.1205 113.189 19.0062 113.809 18.6508C114.542 18.2317 115.718 17.3301 116.224 16.8095C116.792 16.2254 117.779 14.8159 118.133 14.1048C119.549 11.2605 119.373 8.27643 117.716 7.29872C117.033 6.89236 115.831 6.86697 115.022 7.2225ZM117.184 8.505C117.59 9.00022 117.691 9.55893 117.576 10.6891C117.412 12.4159 116.805 13.8254 115.692 15.0699C115.162 15.654 113.719 16.7586 113.467 16.7586C113.253 16.7586 114.087 11.7811 114.567 10.2446C114.959 8.97486 115.692 8.12407 116.401 8.12407C116.755 8.12407 116.932 8.21293 117.184 8.505Z" fill="black"/>
<path d="M75.09 7.50192C72.561 7.81935 70.7024 10.7526 70.8794 14.1557C70.9932 16.3143 71.9415 17.6603 73.3576 17.673C73.9644 17.673 74.4197 17.4443 74.7357 16.9746C75.204 16.2889 75.1657 16.0096 74.5972 15.8063C73.9391 15.5778 73.2061 14.8287 72.8771 14.0541C72.561 13.3176 72.4975 11.7557 72.7508 10.9685C73.5098 8.65742 76.0005 7.95906 77.6441 9.59706C78.6687 10.6383 79.2755 12.5049 79.4148 15.0571C79.6298 19.4253 78.3144 22.8283 75.8995 24.1236C75.2415 24.4663 74.9132 24.5553 74.1289 24.6061C72.7126 24.6823 72.0047 24.4156 71.0438 23.4379C70.1459 22.5363 69.6275 21.5205 69.1976 19.8698C68.932 18.8539 68.8941 18.4603 68.9068 16.2508C68.9194 14.1175 68.9573 13.6351 69.1976 12.7588C69.4884 11.6542 70.108 10.2446 70.4494 9.8637C70.6518 9.63513 70.6518 9.60977 70.3609 9.3812C69.7034 8.8352 68.7171 9.22885 67.9837 10.3336C66.6433 12.3271 66.1376 17.4444 66.9847 20.3522C67.4526 21.9268 67.9458 22.8411 68.8941 23.8443C70.2724 25.3172 71.7898 25.9521 73.9521 25.9521C74.9507 25.9648 75.419 25.9013 76.152 25.6473C78.0742 25.0251 79.6298 23.6283 80.6283 21.6474C81.2481 20.4031 81.5894 19.1078 81.7539 17.254C81.8802 15.8953 81.8679 15.4254 81.7034 14.2064C81.3621 11.8192 80.7171 10.2828 79.528 9.03835C78.3779 7.81935 76.8101 7.28606 75.09 7.50192Z" fill="black"/>
<path d="M146.243 7.55326C143.398 8.07384 140.603 9.57219 140.831 10.4483C140.957 10.969 141.248 10.9563 141.956 10.423C142.614 9.92776 143.613 9.38176 144.17 9.20398C144.435 9.12776 144.447 9.14048 144.346 9.35634C143.802 10.3722 142.968 13.3816 142.437 16.1878C141.843 19.375 141.742 20.4416 141.729 23.4257C141.729 26.2065 141.729 26.2193 142.071 26.9558C142.373 27.5906 142.499 27.7303 143.006 27.9588C143.499 28.1748 143.752 28.2001 144.435 28.1366C144.877 28.0985 145.294 28.0224 145.346 27.9716C145.396 27.9081 145.333 27.5271 145.193 27.1208C145.055 26.7018 144.814 25.5843 144.675 24.6447C144.46 23.1591 144.435 22.5114 144.485 20.0606C144.587 16.0862 145.042 13.28 146.054 10.5373C146.483 9.38176 146.496 9.31826 146.306 8.97541C146.117 8.64526 146.117 8.61984 146.319 8.53098C146.432 8.48019 147.33 8.44212 148.304 8.44212C149.974 8.44212 150.112 8.46748 150.833 8.79762C152.248 9.45791 152.844 10.3087 152.831 11.68C152.831 12.8228 152.464 13.5466 151.288 14.7402C149.948 16.0735 149.366 16.4037 148.202 16.4291C147.065 16.4545 146.559 16.7211 146.622 17.2418C146.686 17.8132 147.165 17.9783 148.216 17.7751C148.709 17.6863 149.505 17.6353 150.023 17.6734C151.958 17.8004 152.932 18.7909 152.907 20.5941C152.895 22.0288 152.262 23.1082 151.098 23.6796C149.884 24.2764 148.81 24.251 146.61 23.54C146.319 23.451 146.306 23.4638 146.383 23.9463C146.496 24.6193 147.229 25.305 148.127 25.5843C148.911 25.8129 150.567 25.851 151.453 25.6478C152.717 25.3685 153.943 24.5303 154.5 23.5653C155.386 22.0162 155.132 19.921 153.855 18.4353C153.35 17.8259 151.921 17.064 151.074 16.937L150.492 16.8481L151.617 16.3148C154.298 15.0323 155.74 13.3435 155.751 11.4896C155.751 9.53412 153.995 8.07384 151.036 7.55326C149.746 7.32469 147.494 7.32469 146.243 7.55326Z" fill="black"/>
<path d="M9.69108 7.62889C9.07151 7.80667 7.81968 9.0511 6.9851 10.3336C4.59522 13.9526 1.76279 21.4062 1.16848 25.6347C0.890287 27.5902 1.24434 28.1235 3.03991 28.5045C3.50777 28.606 3.93769 28.6949 3.97562 28.6949C4.01356 28.6949 4.02621 28.1616 3.98827 27.514C3.86183 24.9237 5.05044 19.819 6.94716 14.8795C7.61736 13.1399 8.74272 10.8923 9.28645 10.2447C9.94397 9.44474 10.6394 9.22888 10.8545 9.74946C11.0062 10.1304 10.9177 13.5462 10.6521 17.0127C10.3992 20.4285 10.4119 21.3047 10.7532 22.6633C11.3349 25.0505 13.0167 25.749 14.2053 24.1109C14.6226 23.5268 15.3306 21.7492 16.5446 18.2191C17.5561 15.2985 17.809 14.6255 18.2643 13.6859C18.6942 12.8351 18.8586 12.6954 19.0988 13.013C19.3518 13.3684 19.3011 14.8922 18.9345 18.6888C18.4666 23.5395 18.5678 25.3427 19.4023 26.2441C19.554 26.3966 19.8069 26.549 19.9714 26.587C20.3887 26.7013 21.3749 26.4474 21.8175 26.1426C22.1589 25.8887 22.1716 25.8633 21.9945 25.5966C21.6404 25.1014 21.2991 24.2505 21.16 23.5141C21.0208 22.7649 20.7553 17.927 20.8438 17.7747C20.945 17.6095 20.9323 12.124 20.8438 11.7431C20.6668 11.0574 20.1737 10.2193 19.8576 10.0415C19.4275 9.81296 18.9345 9.95267 18.5045 10.4097C17.7712 11.1971 17.1389 12.6447 14.7111 19.108C14.0029 20.9872 13.3961 22.5618 13.3708 22.5872C13.2696 22.7015 13.1811 22.4856 13.0041 21.5967C12.865 20.9492 12.7764 19.235 12.6879 15.8319C12.5614 10.7018 12.4477 9.7241 11.8913 8.64474C11.4234 7.71781 10.6142 7.34953 9.69108 7.62889Z" fill="black"/>
<path d="M125.922 7.66765C125.253 7.95965 125.202 8.11207 125.429 9.01357C125.657 9.9025 125.645 10.1691 125.215 14.8546C124.708 20.264 124.936 22.9179 126.049 24.8354C126.479 25.5844 127.39 26.3464 128.073 26.5368C128.855 26.7527 129.969 26.6511 130.715 26.2829C132.119 25.5844 133.812 23.5782 135.002 21.2417C135.368 20.518 135.685 19.9339 135.722 19.9339C135.76 19.9339 135.811 20.3784 135.836 20.9116C135.874 22.0672 136.127 23.5021 136.405 24.1624C136.835 25.2035 138.074 25.4194 139.326 24.6702C139.566 24.5305 139.566 24.5179 139.301 24.0354C138.568 22.7148 138.125 20.4418 138.037 17.3942C137.935 14.3341 138.201 12.1501 138.959 9.48343C139.2 8.67079 139.25 8.31522 139.149 8.21365C139.074 8.13743 138.681 8.04857 138.276 8.02315C137.594 7.97236 137.493 7.99779 137.126 8.32793C136.671 8.75964 136.494 9.44536 136.165 12.1246C135.748 15.553 135.318 17.1404 134.192 19.5403C131.587 25.0511 128.173 26.4734 127.376 22.3719C127.086 20.937 127.275 17.0388 127.807 13.5214C128.451 9.21679 128.4 8.02315 127.554 7.6295C127.136 7.43907 126.39 7.46443 125.922 7.66765Z" fill="black"/>
<path d="M98.9261 7.89553C95.7521 8.34003 92.9577 10.3717 91.5291 13.2668C90.125 16.0731 90.024 19.0572 91.2253 21.5333C92.8949 24.9363 97.1937 26.7775 101.151 25.7745C103.099 25.2792 105.426 23.8697 105.944 22.8411C106.21 22.346 106.184 21.7618 105.881 21.4571C105.54 21.1142 105.489 21.1269 105.135 21.6475C104.629 22.3967 103.327 23.5269 102.454 23.9712C101.228 24.5935 99.7862 24.8475 98.4961 24.657C97.2572 24.4792 96.3719 24.0602 95.4614 23.222C93.299 21.2412 92.7052 18.0159 93.8553 14.6255C94.3488 13.2161 94.8921 12.3145 95.9549 11.2479C97.434 9.73675 99.1411 9.01303 101.177 9.01303C102.517 9.01303 103.099 9.19075 103.757 9.77489C104.237 10.2066 104.288 10.2955 104.338 11.0066C104.389 11.6542 104.338 11.9082 104.034 12.5685C103.769 13.1525 103.718 13.4065 103.819 13.5716C104.022 13.9017 104.503 14.0922 105.135 14.0922C105.881 14.0922 106.235 13.7367 106.374 12.8352C106.905 9.49553 103.516 7.23525 98.9261 7.89553Z" fill="black"/>
<path d="M85.4459 20.1245C85.2316 20.2386 84.9784 20.4673 84.8896 20.6323C84.5108 21.3434 85.2316 22.6005 86.0282 22.6005C87.2418 22.6005 88.2411 20.8229 87.3428 20.2386C86.8875 19.9339 85.9264 19.8832 85.4459 20.1245Z" fill="black"/>
<path d="M167.407 5.97183L166.067 9.75935H165.569L164.229 5.98145V9.75935H163.367V4.59717H164.44L165.818 8.43278L167.197 4.59717H168.268V9.75935H167.407V5.97183ZM162.611 5.37582H161.204V9.75935H160.332V5.37582H158.915V4.59717H162.611V5.37582Z" fill="black"/>
</svg>
